<?xml version="1.0" encoding="UTF-8"?>
<svg width="1024" height="667.8" version="1.1" viewBox="0 0 270.93 176.69" xmlns="http://www.w3.org/2000/svg" xmlns:cc="http://creativecommons.org/ns#" xmlns:dc="http://purl.org/dc/elements/1.1/" xmlns:rdf="http://www.w3.org/1999/02/22-rdf-syntax-ns#">
 <metadata>
  <rdf:RDF>
   <cc:Work rdf:about="">
    <dc:format>image/svg+xml</dc:format>
    <dc:type rdf:resource="http://purl.org/dc/dcmitype/StillImage"/>
    <dc:title/>
   </cc:Work>
  </rdf:RDF>
 </metadata>
 <g transform="matrix(.98535 0 0 .98524 1.9845 -45.121)" stroke-width="1.0149">
  <g transform="matrix(1.5059 0 0 1.5059 -86.274 -42.12)" fill="#b80f0a" stroke="#000" stroke-linecap="round" stroke-linejoin="round">
   <g stroke-width="2.6748">
    <rect x="57.292" y="123.22" width="52.917" height="52.917"/>
    <rect x="120.79" y="123.22" width="52.917" height="52.917"/>
    <rect x="184.29" y="123.22" width="52.917" height="52.917"/>
   </g>
   <rect x="120.79" y="59.72" width="52.917" height="52.917" stroke-width="2.675"/>
  </g>
  <g stroke-width="0">
   <path d="m135.47 67.918-15.312 15.31h12.113v24.163h6.397v-24.163h12.113z"/>
   <path d="m20.106 183.28 15.31 15.312v-12.113h24.163v-6.397h-24.163v-12.113z"/>
   <path d="m135.47 203.02 15.312-15.31h-12.113v-24.163h-6.397v24.163h-12.113z"/>
   <path d="m250.83 183.28-15.31-15.312v12.113h-24.163v6.397h24.163v12.113z"/>
  </g>
 </g>
</svg>
