<?xml version="1.0" encoding="UTF-8" standalone="no"?>
<svg
   xmlns:dc="http://purl.org/dc/elements/1.1/"
   xmlns:cc="http://creativecommons.org/ns#"
   xmlns:rdf="http://www.w3.org/1999/02/22-rdf-syntax-ns#"
   xmlns:svg="http://www.w3.org/2000/svg"
   xmlns="http://www.w3.org/2000/svg"
   xmlns:sodipodi="http://sodipodi.sourceforge.net/DTD/sodipodi-0.dtd"
   xmlns:inkscape="http://www.inkscape.org/namespaces/inkscape"
   width="1024"
   height="1024"
   viewBox="0 0 270.93333 270.93333"
   version="1.1"
   id="svg8"
   inkscape:version="1.0 (4035a4fb49, 2020-05-01)"
   sodipodi:docname="LMB-src.svg">
  <defs
     id="defs2" />
  <sodipodi:namedview
     id="base"
     pagecolor="#272727"
     bordercolor="#666666"
     borderopacity="1.0"
     inkscape:pageopacity="0"
     inkscape:pageshadow="2"
     inkscape:zoom="0.49497475"
     inkscape:cx="481.81514"
     inkscape:cy="589.19641"
     inkscape:document-units="mm"
     inkscape:current-layer="g17"
     inkscape:document-rotation="0"
     showgrid="false"
     fit-margin-top="0"
     fit-margin-left="0"
     fit-margin-right="0"
     fit-margin-bottom="0"
     inkscape:showpageshadow="false"
     units="px"
     inkscape:window-width="1920"
     inkscape:window-height="1001"
     inkscape:window-x="-9"
     inkscape:window-y="1341"
     inkscape:window-maximized="1" />
  <metadata
     id="metadata5">
    <rdf:RDF>
      <cc:Work
         rdf:about="">
        <dc:format>image/svg+xml</dc:format>
        <dc:type
           rdf:resource="http://purl.org/dc/dcmitype/StillImage" />
        <dc:title></dc:title>
      </cc:Work>
    </rdf:RDF>
  </metadata>
  <g
     inkscape:groupmode="layer"
     id="layer2"
     inkscape:label="content">
    <g
       style="stroke-width:0.46875"
       transform="matrix(0.56444444,0,0,0.56444444,-9.03111,-9.03111)"
       id="g17">
	<path
   style="stroke-width:0;fill:#dcdcdc;fill-opacity:1;stroke-miterlimit:4;stroke-dasharray:none"
   fill="#020202"
   d="m 284.5,182 c 0,15.74 -12.76,28.5 -28.5,28.5 v 0 c -15.74,0 -28.5,-12.76 -28.5,-28.5 v -49 c 0,-15.74 12.76,-28.5 28.5,-28.5 v 0 c 15.74,0 28.5,12.76 28.5,28.5 z"
   id="path7" />

	<g
   style="stroke-width:0.46875"
   id="g15">
		<path
   style="stroke-width:0;fill:#dcdcdc;fill-opacity:1;stroke-miterlimit:4;stroke-dasharray:none"
   fill="#020202"
   d="m 274,88.035 c 15.071,6.217 25.557,19.987 25.557,35.988 v 67.953 c 0,16.001 -10.485,29.771 -25.557,35.988 V 264.5 H 421 V 141.806 C 421,72.325 362.797,16 291,16 h -17 z"
   id="path9" />

		<path
   style="stroke-width:0;fill:#dcdcdc;fill-opacity:1;stroke-miterlimit:4;stroke-dasharray:none"
   fill="#020202"
   d="m 91,275 v 95.193 C 91,439.675 149.203,496 221,496 h 70 c 71.797,0 130,-56.325 130,-125.807 V 275 Z"
   id="path11" />

		<path
   inkscape:label="path13"
   style="fill:#b80f0a;fill-opacity:1;stroke-width:0;stroke-miterlimit:4;stroke-dasharray:none"
   fill="#020202"
   d="m 238,264.5 v -36.535 c -15.071,-6.217 -25.557,-19.987 -25.557,-35.988 v -67.953 c 0,-16.001 10.485,-29.771 25.557,-35.988 V 16 H 221 C 149.203,16 91,72.325 91,141.806 V 264.5 Z"
   id="path13" />

	</g>

</g>
  </g>
  <inkscape:templateinfo>
    <inkscape:name>Dark Canvas</inkscape:name>
    <inkscape:date>2021-08-31</inkscape:date>
  </inkscape:templateinfo>
</svg>
