<?xml version="1.0" encoding="UTF-8"?>
<svg width="708.62" height="1024" version="1.1" viewBox="0 0 187.49 270.93" xmlns="http://www.w3.org/2000/svg" xmlns:cc="http://creativecommons.org/ns#" xmlns:dc="http://purl.org/dc/elements/1.1/" xmlns:rdf="http://www.w3.org/1999/02/22-rdf-syntax-ns#">
 <metadata>
  <rdf:RDF>
   <cc:Work rdf:about="">
    <dc:format>image/svg+xml</dc:format>
    <dc:type rdf:resource="http://purl.org/dc/dcmitype/StillImage"/>
    <dc:title/>
   </cc:Work>
  </rdf:RDF>
 </metadata>
 <g transform="matrix(.56444 0 0 .56444 -50.753 -9.0311)" stroke="#000">
  <path d="m284.5 182c0 15.74-12.76 28.5-28.5 28.5s-28.5-12.76-28.5-28.5v-49c0-15.74 12.76-28.5 28.5-28.5s28.5 12.76 28.5 28.5z" fill="#dcdcdc" stroke-width="7.0312"/>
  <g transform="matrix(.98525 0 0 .98535 3.7748 3.7502)" stroke-linecap="round" stroke-linejoin="round" stroke-width="7.1361" style="paint-order:normal">
   <path d="m274 88.035c15.071 6.217 25.557 19.987 25.557 35.988v67.953c0 16.001-10.485 29.771-25.557 35.988v36.536h147v-122.69c0-69.481-58.203-125.81-130-125.81h-17z" fill="#dcdcdc" style="paint-order:normal"/>
   <path d="m91 275v95.193c0 69.482 58.203 125.81 130 125.81h70c71.797 0 130-56.325 130-125.81v-95.193z" fill="#dcdcdc" style="paint-order:normal"/>
   <path d="m238 264.5v-36.535c-15.071-6.217-25.557-19.987-25.557-35.988v-67.953c0-16.001 10.485-29.771 25.557-35.988v-72.036h-17c-71.797 0-130 56.325-130 125.81v122.69z" fill="#b80f0a" style="paint-order:normal"/>
  </g>
 </g>
</svg>
