<?xml version="1.0" encoding="UTF-8" standalone="no"?>
<svg
   xmlns:dc="http://purl.org/dc/elements/1.1/"
   xmlns:cc="http://creativecommons.org/ns#"
   xmlns:rdf="http://www.w3.org/1999/02/22-rdf-syntax-ns#"
   xmlns:svg="http://www.w3.org/2000/svg"
   xmlns="http://www.w3.org/2000/svg"
   xmlns:sodipodi="http://sodipodi.sourceforge.net/DTD/sodipodi-0.dtd"
   xmlns:inkscape="http://www.inkscape.org/namespaces/inkscape"
   inkscape:export-ydpi="96"
   inkscape:export-xdpi="96"
   inkscape:export-filename="C:\Users\matis\Documents\Projekty\Competitive Games\src\client\routes\404\assets\404.png"
   sodipodi:docname="404-src.svg"
   inkscape:version="1.0 (4035a4fb49, 2020-05-01)"
   id="svg8"
   version="1.1"
   viewBox="0 0 270.93333 123.12567"
   height="465.35687"
   width="1024">
  <defs
     id="defs2" />
  <sodipodi:namedview
     inkscape:window-maximized="1"
     inkscape:window-y="1341"
     inkscape:window-x="-9"
     inkscape:window-height="1001"
     inkscape:window-width="1920"
     units="px"
     inkscape:showpageshadow="false"
     fit-margin-bottom="0"
     fit-margin-right="0"
     fit-margin-left="0"
     fit-margin-top="0"
     showgrid="false"
     inkscape:document-rotation="0"
     inkscape:current-layer="layer2"
     inkscape:document-units="mm"
     inkscape:cy="216.8422"
     inkscape:cx="399.48062"
     inkscape:zoom="0.49497475"
     inkscape:pageshadow="2"
     inkscape:pageopacity="0"
     borderopacity="1.0"
     bordercolor="#666666"
     pagecolor="#272727"
     id="base" />
  <metadata
     id="metadata5">
    <rdf:RDF>
      <cc:Work
         rdf:about="">
        <dc:format>image/svg+xml</dc:format>
        <dc:type
           rdf:resource="http://purl.org/dc/dcmitype/StillImage" />
        <dc:title></dc:title>
      </cc:Work>
    </rdf:RDF>
  </metadata>
  <g
     transform="translate(-1.8666614e-5,-73.903668)"
     inkscape:label="content"
     id="layer2"
     inkscape:groupmode="layer">
    <g
       id="g849"
       transform="matrix(23.874689,0,0,23.874005,-8304.2767,-11138.926)"
       style="opacity:0.99;fill:#dcdcdc;fill-opacity:1;stroke:#000000;stroke-width:0;stroke-miterlimit:4;stroke-dasharray:none;stroke-opacity:1"
       inkscape:export-xdpi="96"
       inkscape:export-ydpi="96">
      <path
         d="m 350.01872,474.73807 v -1.20923 h -2.19108 v -0.56844 l 2.30477,-3.27284 h 0.50643 v 3.27284 h 0.68213 v 0.56844 h -0.68213 v 1.20923 z m 0,-1.77767 v -2.27721 l -1.5813,2.27721 z"
         style="font-style:normal;font-variant:normal;font-weight:normal;font-stretch:normal;font-size:7.05556px;line-height:1.25;font-family:Arial;-inkscape-font-specification:'Arial, Normal';font-variant-ligatures:normal;font-variant-caps:normal;font-variant-numeric:normal;font-variant-east-asian:normal;letter-spacing:0px;word-spacing:0px;fill:#dcdcdc;fill-opacity:1;stroke:#000000;stroke-width:0;stroke-miterlimit:4;stroke-dasharray:none;stroke-opacity:1"
         id="path836" />
      <path
         d="m 351.95831,472.24726 q 0,-0.89572 0.18259,-1.44005 0.18603,-0.54777 0.54777,-0.84404 0.36518,-0.29628 0.9164,-0.29628 0.40652,0 0.71313,0.16536 0.30661,0.16192 0.50643,0.47198 0.19981,0.30661 0.3135,0.75103 0.11369,0.44097 0.11369,1.192 0,0.88884 -0.18259,1.43661 -0.18259,0.54432 -0.54777,0.84405 -0.36173,0.29628 -0.91639,0.29628 -0.73037,0 -1.14722,-0.52366 -0.49954,-0.63045 -0.49954,-2.05328 z m 0.63734,0 q 0,1.24368 0.28939,1.65709 0.29283,0.40997 0.72003,0.40997 0.42719,0 0.71657,-0.41341 0.29284,-0.41341 0.29284,-1.65365 0,-1.24712 -0.29284,-1.65709 -0.28938,-0.40996 -0.72347,-0.40996 -0.42719,0 -0.68212,0.36173 -0.3204,0.46164 -0.3204,1.70532 z"
         style="font-style:normal;font-variant:normal;font-weight:normal;font-stretch:normal;font-size:7.05556px;line-height:1.25;font-family:Arial;-inkscape-font-specification:'Arial, Normal';font-variant-ligatures:normal;font-variant-caps:normal;font-variant-numeric:normal;font-variant-east-asian:normal;letter-spacing:0px;word-spacing:0px;fill:#dcdcdc;fill-opacity:1;stroke:#000000;stroke-width:0;stroke-miterlimit:4;stroke-dasharray:none;stroke-opacity:1"
         id="path838" />
      <path
         d="m 357.87354,474.73807 v -1.20923 h -2.19108 v -0.56844 l 2.30477,-3.27284 h 0.50643 v 3.27284 h 0.68212 v 0.56844 h -0.68212 v 1.20923 z m 0,-1.77767 v -2.27721 l -1.5813,2.27721 z"
         style="font-style:normal;font-variant:normal;font-weight:normal;font-stretch:normal;font-size:7.05556px;line-height:1.25;font-family:Arial;-inkscape-font-specification:'Arial, Normal';font-variant-ligatures:normal;font-variant-caps:normal;font-variant-numeric:normal;font-variant-east-asian:normal;letter-spacing:0px;word-spacing:0px;fill:#dcdcdc;fill-opacity:1;stroke:#000000;stroke-width:0;stroke-miterlimit:4;stroke-dasharray:none;stroke-opacity:1"
         id="path840" />
    </g>
  </g>
  <inkscape:templateinfo>
    <inkscape:name>Dark Canvas</inkscape:name>
    <inkscape:date>2021-08-31</inkscape:date>
  </inkscape:templateinfo>
  <inkscape:templateinfo>
    <inkscape:name>Dark Canvas</inkscape:name>
    <inkscape:date>2021-08-31</inkscape:date>
  </inkscape:templateinfo>
</svg>
