<?xml version="1.0" encoding="UTF-8"?>
<svg width="6e3" height="1024" version="1.1" viewBox="0 0 1587.5 270.93" xmlns="http://www.w3.org/2000/svg" xmlns:cc="http://creativecommons.org/ns#" xmlns:dc="http://purl.org/dc/elements/1.1/" xmlns:rdf="http://www.w3.org/1999/02/22-rdf-syntax-ns#">
 <metadata>
  <rdf:RDF>
   <cc:Work rdf:about="">
    <dc:format>image/svg+xml</dc:format>
    <dc:type rdf:resource="http://purl.org/dc/dcmitype/StillImage"/>
    <dc:title/>
   </cc:Work>
  </rdf:RDF>
 </metadata>
 <g transform="translate(-462.58 -6.6058)" stroke="#000">
  <g transform="matrix(.99508 0 0 .99511 -39.405 .69524)">
   <g transform="matrix(44.178 0 0 43.947 -19490 -20552)" fill="#b80f0a" stroke-width=".060344" style="font-variant-caps:normal;font-variant-east-asian:normal;font-variant-ligatures:normal;font-variant-numeric:normal" aria-label="C">
    <path d="m454.72 473.96q-0.62425 0-1.0997-0.27699-0.47129-0.27698-0.73174-0.78548-0.26045-0.50849-0.26045-1.1782v-1.6495q0-0.66973 0.26045-1.1782 0.26045-0.5085 0.73174-0.78549 0.47542-0.28112 1.0997-0.28112 0.51677 0 0.95085 0.22325 0.43408 0.21911 0.72347 0.62425 0.29352 0.40514 0.39688 0.93844h-0.86403q-0.0786-0.28112-0.26459-0.50023-0.1819-0.22324-0.42995-0.34313-0.24804-0.11989-0.51263-0.11989-0.36793 0-0.64492 0.17777-0.27698 0.17777-0.42995 0.50023-0.15296 0.31833-0.15296 0.74414v1.6495q0 0.42168 0.15296 0.74414 0.15297 0.32246 0.42995 0.50023 0.27699 0.17363 0.64492 0.17363 0.26872 0 0.51263-0.11162 0.24805-0.11162 0.42995-0.33073 0.18604-0.21911 0.26459-0.5209h0.86403q-0.10336 0.5333-0.39688 0.93845-0.29352 0.40514-0.7276 0.62838-0.43409 0.21911-0.94672 0.21911z" fill="#b80f0a" stroke="#000" stroke-width=".060344" style="font-variant-caps:normal;font-variant-east-asian:normal;font-variant-ligatures:normal;font-variant-numeric:normal"/>
   </g>
   <g transform="matrix(1.9955 0 0 1.9908 -374.54 -5.9238)" fill="#ffdc00" stroke-width="1.334">
    <rect x="514.44" y="80.913" width="19.106" height="19.05"/>
    <rect x="514.44" y="61.862" width="19.106" height="19.05"/>
    <rect x="495.33" y="61.862" width="19.106" height="19.05"/>
    <rect x="476.22" y="61.862" width="19.106" height="19.05"/>
   </g>
  </g>
  <g fill="#dcdcdc" stroke-width="2.6458">
   <path d="m828.78 148.19 31.346 0.81131q-3.0977 24.339-16.89 37.615-13.718 13.276-35.845 13.276-22.495 0-37.689-15.046-15.12-15.12-15.12-37.467 0-22.495 15.415-37.836 15.488-15.341 38.131-15.341 22.274 0 37.172 15.046 10.326 10.399 14.603 28.986l-32.083 2.1389q-5.3841-16.521-20.43-16.521-9.5881 0-15.857 6.6379-6.1954 6.6379-6.1954 16.89 0 9.8831 6.1216 16.374 6.1216 6.4166 15.488 6.4166 9.5143 0 15.12-5.6791 5.6791-5.6791 6.7116-16.3z" style="font-variant-caps:normal;font-variant-east-asian:normal;font-variant-ligatures:normal;font-variant-numeric:normal"/>
   <path d="m907.11 122.31q15.636 0 26.773 11.284 11.211 11.211 11.211 26.92 0 15.931-11.358 27.142-11.284 11.211-27.289 11.211-16.005 0-27.363-11.211-11.358-11.284-11.358-27.142 0-16.152 11.358-27.142 11.358-11.063 28.027-11.063zm-0.73753 27.215q-4.4253 0-7.5229 3.2452-3.0977 3.1715-3.0977 7.818 0 4.5728 3.0977 7.818 3.1714 3.2452 7.5229 3.2452 4.4252 0 7.5229-3.2452 3.1715-3.2452 3.1715-7.818 0-4.6465-3.0976-7.818-3.0978-3.2452-7.5967-3.2452z" style="font-variant-caps:normal;font-variant-east-asian:normal;font-variant-ligatures:normal;font-variant-numeric:normal"/>
   <path d="m1057.5 197.39h-27.584v-39.68q0-4.5728-0.9588-6.3429-0.9589-1.7701-3.4665-1.7701-4.6466 0-4.6466 8.1867v39.606h-27.584v-39.68q0-4.5728-1.0326-6.3429-0.95884-1.7701-3.4664-1.7701-4.5728 0-4.5728 8.1867v39.606h-27.584v-45.285q0-12.391 8.3344-21.02 8.3342-8.703 20.209-8.703 12.243 0 21.979 10.326 10.842-10.326 21.684-10.326 13.792 0 22.126 10.031 6.5642 7.818 6.5642 22.79z" style="font-variant-caps:normal;font-variant-east-asian:normal;font-variant-ligatures:normal;font-variant-numeric:normal"/>
   <path d="m1099.7 224.6h-27.584v-61.364q0-16.89 8.8505-27.51 5.0893-6.1216 12.907-9.7356 7.8918-3.614 16.152-3.614 16.447 0 27.732 11.063 11.284 11.063 11.284 27.142 0 15.636-11.211 26.994-11.211 11.358-26.552 11.358-2.5077 0-7.3754-0.51633v-30.387q3.3926 2.7289 6.7853 2.7289 4.2779 0 7.3017-3.1714 3.0977-3.1714 3.0977-7.523 0-4.3515-3.1715-7.3754-3.1714-3.0977-7.5966-3.0977-10.621 0-10.621 14.677z" style="font-variant-caps:normal;font-variant-east-asian:normal;font-variant-ligatures:normal;font-variant-numeric:normal"/>
   <path d="m1233.3 165.08h-41.819q-0.9586-3.1715-0.9586-5.8266 0-3.6878 1.3276-7.228h14.013q-1.4752-8.1868-9.2192-8.1868-5.163 0-8.4082 4.4253-3.2452 4.3515-3.2452 11.211 0 7.1542 3.0978 11.579 3.1715 4.4253 8.2605 4.4253 4.1303 0 7.9656-4.1303l15.71 18.881q-10.99 8.6293-24.413 8.6293-16.373 0-27.51-10.989-11.137-10.989-11.137-27.215 0-16.152 11.211-27.289 11.284-11.137 27.658-11.137 16.005 0 26.847 10.916 10.916 10.842 10.916 26.773 0 1.6226-0.2951 5.1628z" style="font-variant-caps:normal;font-variant-east-asian:normal;font-variant-ligatures:normal;font-variant-numeric:normal"/>
   <path d="m1269.4 96.714v28.174h12.391v29.133h-12.391q0 8.7768 2.7291 12.096 2.8027 3.319 10.178 3.319v28.986q-2.1386 0.0738-3.1713 0.0738-9.367 0-17.701-4.3515-8.2605-4.3515-13.276-11.801-6.3428-9.5143-6.3428-25.224v-60.405z" style="font-variant-caps:normal;font-variant-east-asian:normal;font-variant-ligatures:normal;font-variant-numeric:normal"/>
   <path d="m1322.9 123.86v73.533h-27.584v-73.533zm-13.718-32.821q5.6054 0 9.6619 3.9828 4.1304 3.909 4.1304 9.2931 0 5.7529-3.909 9.4406-3.8354 3.6877-9.8833 3.6877t-9.9567-3.6877q-3.8352-3.6877-3.8352-9.4406 0-5.3841 4.0564-9.2931 4.1303-3.9828 9.7355-3.9828z" style="font-variant-caps:normal;font-variant-east-asian:normal;font-variant-ligatures:normal;font-variant-numeric:normal"/>
   <path d="m1363.8 96.714v28.174h12.391v29.133h-12.391q0 8.7768 2.7289 12.096 2.8027 3.319 10.178 3.319v28.986q-2.1389 0.0738-3.1716 0.0738-9.3667 0-17.701-4.3515-8.2602-4.3515-13.276-11.801-6.3429-9.5143-6.3429-25.224v-60.405z" style="font-variant-caps:normal;font-variant-east-asian:normal;font-variant-ligatures:normal;font-variant-numeric:normal"/>
   <path d="m1417.3 123.86v73.533h-27.584v-73.533zm-13.718-32.821q5.6052 0 9.662 3.9828 4.1301 3.909 4.1301 9.2931 0 5.7529-3.9091 9.4406-3.8349 3.6877-9.883 3.6877-6.0479 0-9.9568-3.6877-3.8354-3.6877-3.8354-9.4406 0-5.3841 4.0567-9.2931 4.1302-3.9828 9.7355-3.9828z" style="font-variant-caps:normal;font-variant-east-asian:normal;font-variant-ligatures:normal;font-variant-numeric:normal"/>
   <path d="m1488.9 123.86-34.37 76.41-33.927-76.41h26.33l7.8178 19.84 8.5557-19.84z" style="font-variant-caps:normal;font-variant-east-asian:normal;font-variant-ligatures:normal;font-variant-numeric:normal"/>
   <path d="m1564 165.08h-41.819q-0.9586-3.1715-0.9586-5.8266 0-3.6878 1.3275-7.228h14.014q-1.4753-8.1868-9.2193-8.1868-5.1631 0-8.4082 4.4253-3.2452 4.3515-3.2452 11.211 0 7.1542 3.0976 11.579 3.1713 4.4253 8.2605 4.4253 4.1302 0 7.9655-4.1303l15.71 18.881q-10.989 8.6293-24.413 8.6293-16.374 0-27.51-10.989-11.137-10.989-11.137-27.215 0-16.152 11.211-27.289 11.284-11.137 27.658-11.137 16.005 0 26.846 10.916 10.916 10.842 10.916 26.773 0 1.6226-0.295 5.1628z" style="font-variant-caps:normal;font-variant-east-asian:normal;font-variant-ligatures:normal;font-variant-numeric:normal"/>
   <path d="m1629.8 154.98v-12.686l45.802-0.0738v40.122q-10.547 8.408-21.758 12.686-11.211 4.204-23.011 4.204-15.931 0-28.986-6.7854-12.98-6.8592-19.619-19.766-6.6379-12.907-6.6379-28.838 0-15.784 6.5642-29.428 6.6378-13.718 19.029-20.356 12.391-6.6379 28.543-6.6379 11.727 0 21.168 3.8352 9.5144 3.7615 14.899 10.547 5.3838 6.7855 8.1865 17.701l-12.907 3.5402q-2.434-8.2605-6.048-12.981-3.6139-4.7203-10.326-7.523-6.7119-2.8764-14.898-2.8764-9.8094 0-16.964 3.024-7.1542 2.9502-11.579 7.818-4.3515 4.8678-6.7857 10.694-4.1301 10.031-4.1301 21.758 0 14.456 4.9416 24.191 5.015 9.7356 14.53 14.456 9.5144 4.7203 20.209 4.7203 9.293 0 18.144-3.5402 8.8502-3.614 13.423-7.6705v-20.135z" style="font-variant-caps:normal;font-variant-east-asian:normal;font-variant-ligatures:normal;font-variant-numeric:normal"/>
   <path d="m1746 187.73q-7.3755 6.2691-14.234 8.8506-6.7857 2.5814-14.604 2.5814-12.907 0-19.84-6.2691-6.9329-6.3429-6.9329-16.152 0-5.7529 2.5813-10.473 2.6554-4.794 6.8593-7.6705 4.2776-2.8764 9.5879-4.3515 3.9091-1.0326 11.801-1.9914 16.079-1.9176 23.675-4.5728 0.074-2.7289 0.074-3.4665 0-8.113-3.7614-11.432-5.0893-4.499-15.12-4.499-9.367 0-13.866 3.319-4.4254 3.2452-6.5641 11.579l-12.981-1.7701q1.7701-8.3343 5.8267-13.423 4.0566-5.1628 11.727-7.8917 7.6705-2.8027 17.775-2.8027 10.031 0 16.3 2.3602 6.269 2.3601 9.2194 5.9741 2.9502 3.5402 4.1305 8.998 0.6636 3.3927 0.6636 12.243v17.701q0 18.512 0.8113 23.454 0.8851 4.8678 3.393 9.3668h-13.866q-2.0648-4.1302-2.6551-9.6618zm-1.1062-29.649q-7.228 2.9502-21.684 5.0153-8.1869 1.18-11.579 2.6551-3.3928 1.4751-5.2371 4.3515-1.8438 2.8026-1.8438 6.2691 0 5.3104 3.9831 8.8506 4.0563 3.5402 11.801 3.5402 7.6703 0 13.644-3.319 5.9742-3.3927 8.777-9.2193 2.1388-4.499 2.1388-13.276z" style="font-variant-caps:normal;font-variant-east-asian:normal;font-variant-ligatures:normal;font-variant-numeric:normal"/>
   <path d="m1779 197.39v-78.327h11.874v10.989q3.6878-5.7528 9.8092-9.2193 6.1222-3.5402 13.94-3.5402 8.7033 0 14.235 3.614 5.6053 3.614 7.8917 10.104 9.293-13.718 24.192-13.718 11.653 0 17.922 6.4904 6.269 6.4166 6.269 19.84v53.767h-13.202v-49.342q0-7.9655-1.3276-11.432-1.2542-3.5402-4.6465-5.6791-3.3928-2.1389-7.9655-2.1389-8.2607 0-13.718 5.5316-5.4578 5.4579-5.4578 17.554v45.507h-13.276v-50.891q0-8.8506-3.2452-13.276-3.245-4.4253-10.62-4.4253-5.6055 0-10.4 2.9502-4.7204 2.9502-6.8596 8.6293-2.1386 5.6791-2.1386 16.374v40.639z" style="font-variant-caps:normal;font-variant-east-asian:normal;font-variant-ligatures:normal;font-variant-numeric:normal"/>
   <path d="m1958.6 172.16 13.718 1.6963q-3.2451 12.022-12.022 18.66-8.7769 6.6379-22.421 6.6379-17.185 0-27.289-10.547-10.031-10.621-10.031-29.723 0-19.766 10.178-30.682 10.178-10.916 26.404-10.916 15.71 0 25.667 10.694 9.9564 10.694 9.9564 30.092 0 1.1801-0.074 3.5402h-58.414q0.7374 12.907 7.3015 19.766 6.5644 6.8592 16.374 6.8592 7.3015 0 12.465-3.8352 5.1626-3.8352 8.1867-12.243zm-43.589-21.463h43.736q-0.8854-9.8831-5.0152-14.825-6.3431-7.6705-16.447-7.6705-9.1458 0-15.415 6.1216-6.1952 6.1216-6.8591 16.374z" style="font-variant-caps:normal;font-variant-east-asian:normal;font-variant-ligatures:normal;font-variant-numeric:normal"/>
   <path d="m1983.7 174.01 13.128-2.0651q1.1063 7.8917 6.1217 12.096 5.0889 4.204 14.161 4.204 9.1458 0 13.571-3.6877 4.4251-3.7615 4.4251-8.7768 0-4.499-3.909-7.0804-2.729-1.7701-13.571-4.499-14.604-3.6877-20.283-6.3429-5.6051-2.7289-8.5554-7.4492-2.8766-4.7941-2.8766-10.547 0-5.2366 2.3604-9.6618 2.4338-4.499 6.5641-7.4492 3.0977-2.2864 8.4079-3.8353 5.3845-1.6226 11.506-1.6226 9.2191 0 16.152 2.6552 7.0067 2.6552 10.326 7.228 3.3187 4.499 4.5729 12.096l-12.981 1.7701q-0.8849-6.0479-5.1626-9.4405-4.2042-3.3927-11.948-3.3927-9.1458 0-13.054 3.0239-3.9095 3.024-3.9095 7.0804 0 2.5814 1.623 4.6465 1.6225 2.1389 5.0893 3.5402 1.9913 0.73754 11.727 3.3927 14.087 3.7615 19.619 6.1954 5.605 2.3602 8.7765 6.933 3.1715 4.5728 3.1715 11.358 0 6.6379-3.9089 12.538-3.8353 5.8266-11.137 9.0718-7.3019 3.1714-16.521 3.1714-15.267 0-23.306-6.3429-7.9658-6.3429-10.178-18.807z" style="font-variant-caps:normal;font-variant-east-asian:normal;font-variant-ligatures:normal;font-variant-numeric:normal"/>
  </g>
 </g>
</svg>
