<?xml version="1.0" encoding="UTF-8" standalone="no"?>
<svg
   xmlns:dc="http://purl.org/dc/elements/1.1/"
   xmlns:cc="http://creativecommons.org/ns#"
   xmlns:rdf="http://www.w3.org/1999/02/22-rdf-syntax-ns#"
   xmlns:svg="http://www.w3.org/2000/svg"
   xmlns="http://www.w3.org/2000/svg"
   xmlns:sodipodi="http://sodipodi.sourceforge.net/DTD/sodipodi-0.dtd"
   xmlns:inkscape="http://www.inkscape.org/namespaces/inkscape"
   width="6000"
   height="1024"
   viewBox="0 0 1587.4999 270.93332"
   version="1.1"
   id="svg8"
   inkscape:version="1.0 (4035a4fb49, 2020-05-01)"
   sodipodi:docname="full-logo-src.svg"
   inkscape:export-filename="C:\Users\matis\Documents\Projekty\Competitive Games\src\client\shared\assets\full-logo.png"
   inkscape:export-xdpi="96"
   inkscape:export-ydpi="96">
  <defs
     id="defs2" />
  <sodipodi:namedview
     inkscape:snap-bbox="true"
     id="base"
     pagecolor="#272727"
     bordercolor="#666666"
     borderopacity="1.0"
     inkscape:pageopacity="0"
     inkscape:pageshadow="2"
     inkscape:zoom="0.1767767"
     inkscape:cx="2889.6596"
     inkscape:cy="389.08302"
     inkscape:document-units="mm"
     inkscape:current-layer="layer2"
     inkscape:document-rotation="0"
     showgrid="false"
     fit-margin-top="0"
     fit-margin-left="0"
     fit-margin-right="0"
     fit-margin-bottom="0"
     inkscape:showpageshadow="false"
     inkscape:window-width="1920"
     inkscape:window-height="1001"
     inkscape:window-x="-9"
     inkscape:window-y="1341"
     inkscape:window-maximized="1"
     units="px" />
  <metadata
     id="metadata5">
    <rdf:RDF>
      <cc:Work
         rdf:about="">
        <dc:format>image/svg+xml</dc:format>
        <dc:type
           rdf:resource="http://purl.org/dc/dcmitype/StillImage" />
        <dc:title></dc:title>
      </cc:Work>
    </rdf:RDF>
  </metadata>
  <g
     inkscape:groupmode="layer"
     id="layer2"
     inkscape:label="content"
     transform="translate(-462.58204,-6.6058092)">
    <g
       id="g860"
       transform="matrix(0.99508316,0,0,0.99510614,-39.40522,0.69524342)"
       style="stroke-width:2.65888;stroke-miterlimit:4;stroke-dasharray:none"
       inkscape:export-xdpi="96"
       inkscape:export-ydpi="96">
      <g
         transform="matrix(44.177684,0,0,43.946628,-19490.021,-20551.958)"
         style="font-style:normal;font-variant:normal;font-weight:normal;font-stretch:normal;font-size:8.46667px;line-height:1.25;font-family:Bahnschrift;-inkscape-font-specification:'Bahnschrift, Normal';font-variant-ligatures:normal;font-variant-caps:normal;font-variant-numeric:normal;font-variant-east-asian:normal;letter-spacing:0px;word-spacing:0px;fill:#b80f0a;fill-opacity:1;stroke:#000000;stroke-width:0.060344;stroke-miterlimit:4;stroke-dasharray:none;stroke-opacity:1"
         id="text936"
         aria-label="C">
        <path
           id="path938"
           style="font-style:normal;font-variant:normal;font-weight:normal;font-stretch:normal;font-size:8.46667px;font-family:Bahnschrift;-inkscape-font-specification:'Bahnschrift, Normal';font-variant-ligatures:normal;font-variant-caps:normal;font-variant-numeric:normal;font-variant-east-asian:normal;fill:#b80f0a;fill-opacity:1;stroke:#000000;stroke-width:0.060344;stroke-miterlimit:4;stroke-dasharray:none;stroke-opacity:1"
           d="m 454.7182,473.95758 q -0.62425,0 -1.09967,-0.27699 -0.47129,-0.27698 -0.73174,-0.78548 -0.26045,-0.50849 -0.26045,-1.17822 v -1.64951 q 0,-0.66973 0.26045,-1.17822 0.26045,-0.5085 0.73174,-0.78549 0.47542,-0.28112 1.09967,-0.28112 0.51677,0 0.95085,0.22325 0.43408,0.21911 0.72347,0.62425 0.29352,0.40514 0.39688,0.93844 v 0 h -0.86403 v 0 q -0.0786,-0.28112 -0.26459,-0.50023 -0.1819,-0.22324 -0.42995,-0.34313 -0.24804,-0.11989 -0.51263,-0.11989 -0.36793,0 -0.64492,0.17777 -0.27698,0.17777 -0.42995,0.50023 -0.15296,0.31833 -0.15296,0.74414 v 1.64951 q 0,0.42168 0.15296,0.74414 0.15297,0.32246 0.42995,0.50023 0.27699,0.17363 0.64492,0.17363 0.26872,0 0.51263,-0.11162 0.24805,-0.11162 0.42995,-0.33073 0.18604,-0.21911 0.26459,-0.5209 v 0 h 0.86403 v 0 q -0.10336,0.5333 -0.39688,0.93845 -0.29352,0.40514 -0.7276,0.62838 -0.43409,0.21911 -0.94672,0.21911 z" />
      </g>
      <g
         transform="matrix(1.9954956,0,0,1.9908469,-374.5428,-5.9238411)"
         id="g852"
         style="fill:#ffdc00;fill-opacity:1;stroke:#000000;stroke-width:1.33399;stroke-miterlimit:4;stroke-dasharray:none;stroke-opacity:1">
        <rect
           y="80.912521"
           x="514.435"
           height="19.050156"
           width="19.105703"
           id="rect1248"
           style="fill:#ffdc00;fill-opacity:1;stroke:#000000;stroke-width:1.33399;stroke-miterlimit:4;stroke-dasharray:none;stroke-opacity:1" />
        <rect
           style="fill:#ffdc00;fill-opacity:1;stroke:#000000;stroke-width:1.33399;stroke-miterlimit:4;stroke-dasharray:none;stroke-opacity:1"
           id="rect1252"
           width="19.105703"
           height="19.050156"
           x="514.435"
           y="61.862358" />
        <rect
           y="61.862358"
           x="495.3291"
           height="19.050156"
           width="19.105703"
           id="rect1256"
           style="fill:#ffdc00;fill-opacity:1;stroke:#000000;stroke-width:1.33399;stroke-miterlimit:4;stroke-dasharray:none;stroke-opacity:1" />
        <rect
           style="fill:#ffdc00;fill-opacity:1;stroke:#000000;stroke-width:1.33399;stroke-miterlimit:4;stroke-dasharray:none;stroke-opacity:1"
           id="rect1260"
           width="19.105703"
           height="19.050156"
           x="476.22324"
           y="61.862358" />
      </g>
    </g>
    <path
       d="m 828.78489,148.19441 31.34573,0.81131 q -3.09772,24.33899 -16.88984,37.61484 -13.71831,13.27579 -35.84469,13.27579 -22.49513,0 -37.68857,-15.04591 -15.1197,-15.11969 -15.1197,-37.46732 0,-22.49516 15.41473,-37.83609 15.48843,-15.340965 38.13108,-15.340965 22.27389,0 37.1723,15.045925 10.32565,10.39943 14.6034,28.98555 l -32.08324,2.13891 q -5.38408,-16.52101 -20.43,-16.52101 -9.58808,0 -15.85722,6.63789 -6.1954,6.63792 -6.1954,16.88979 0,9.8831 6.12163,16.37352 6.12163,6.41665 15.48846,6.41665 9.51434,0 15.11971,-5.67911 5.67909,-5.67909 6.71162,-16.29977 z"
       style="font-style:normal;font-variant:normal;font-weight:normal;font-stretch:normal;font-size:50.8px;line-height:1.25;font-family:'Bauhaus 93';-inkscape-font-specification:'Bauhaus 93, Normal';font-variant-ligatures:normal;font-variant-caps:normal;font-variant-numeric:normal;font-variant-east-asian:normal;letter-spacing:0px;word-spacing:0px;fill:#dcdcdc;fill-opacity:1;stroke:#000000;stroke-width:2.64583;stroke-miterlimit:4;stroke-dasharray:none;stroke-opacity:1"
       id="path1465" />
    <path
       d="m 907.11225,122.30658 q 15.63593,0 26.77284,11.28442 11.21073,11.21072 11.21073,26.92044 0,15.93099 -11.35815,27.14169 -11.28444,11.21066 -27.2892,11.21066 -16.00477,0 -27.36296,-11.21066 -11.35819,-11.28449 -11.35819,-27.14169 0,-16.15224 11.35819,-27.1417 11.35819,-11.06316 28.02674,-11.06316 z m -0.73753,27.21542 q -4.42529,0 -7.52294,3.24519 -3.09771,3.17149 -3.09771,7.81801 0,4.57278 3.09771,7.81796 3.17143,3.2452 7.52294,3.2452 4.42525,0 7.5229,-3.2452 3.17149,-3.24518 3.17149,-7.81796 0,-4.64652 -3.09765,-7.81801 -3.09778,-3.24519 -7.59674,-3.24519 z"
       style="font-style:normal;font-variant:normal;font-weight:normal;font-stretch:normal;font-size:50.8px;line-height:1.25;font-family:'Bauhaus 93';-inkscape-font-specification:'Bauhaus 93, Normal';font-variant-ligatures:normal;font-variant-caps:normal;font-variant-numeric:normal;font-variant-east-asian:normal;letter-spacing:0px;word-spacing:0px;fill:#dcdcdc;fill-opacity:1;stroke:#000000;stroke-width:2.64583;stroke-miterlimit:4;stroke-dasharray:none;stroke-opacity:1"
       id="path1467" />
    <path
       d="m 1057.4978,197.3887 h -27.5842 v -39.67993 q 0,-4.57278 -0.9588,-6.34293 -0.9589,-1.77006 -3.4665,-1.77006 -4.6466,0 -4.6466,8.18673 v 39.60619 h -27.58412 v -39.67993 q 0,-4.57278 -1.03256,-6.34293 -0.95884,-1.77006 -3.46643,-1.77006 -4.57282,0 -4.57282,8.18673 v 39.60619 h -27.58424 v -45.28528 q 0,-12.3908 8.33437,-21.02006 8.33421,-8.70304 20.2087,-8.70304 12.24316,0 21.9788,10.32566 10.842,-10.32566 21.6839,-10.32566 13.7921,0 22.1263,10.03063 6.5642,7.81799 6.5642,22.79018 z"
       style="font-style:normal;font-variant:normal;font-weight:normal;font-stretch:normal;font-size:50.8px;line-height:1.25;font-family:'Bauhaus 93';-inkscape-font-specification:'Bauhaus 93, Normal';font-variant-ligatures:normal;font-variant-caps:normal;font-variant-numeric:normal;font-variant-east-asian:normal;letter-spacing:0px;word-spacing:0px;fill:#dcdcdc;fill-opacity:1;stroke:#000000;stroke-width:2.64583;stroke-miterlimit:4;stroke-dasharray:none;stroke-opacity:1"
       id="path1469" />
    <path
       d="m 1099.6853,224.60415 h -27.5842 v -61.36381 q 0,-16.88977 8.8505,-27.51045 5.0893,-6.12163 12.9071,-9.73557 7.8918,-3.614 16.1523,-3.614 16.4473,0 27.7318,11.06321 11.2844,11.06315 11.2844,27.14167 0,15.63594 -11.2107,26.99417 -11.2107,11.35821 -26.5516,11.35821 -2.5077,0 -7.3754,-0.51633 V 168.0344 q 3.3926,2.72892 6.7853,2.72892 4.2779,0 7.3017,-3.17144 3.0977,-3.17145 3.0977,-7.52298 0,-4.3515 -3.1715,-7.37545 -3.1714,-3.09767 -7.5966,-3.09767 -10.6208,0 -10.6208,14.67713 z"
       style="font-style:normal;font-variant:normal;font-weight:normal;font-stretch:normal;font-size:50.8px;line-height:1.25;font-family:'Bauhaus 93';-inkscape-font-specification:'Bauhaus 93, Normal';font-variant-ligatures:normal;font-variant-caps:normal;font-variant-numeric:normal;font-variant-east-asian:normal;letter-spacing:0px;word-spacing:0px;fill:#dcdcdc;fill-opacity:1;stroke:#000000;stroke-width:2.64583;stroke-miterlimit:4;stroke-dasharray:none;stroke-opacity:1"
       id="path1471" />
    <path
       d="m 1233.3287,165.08422 h -41.819 q -0.9586,-3.17148 -0.9586,-5.8266 0,-3.68775 1.3276,-7.22795 h 14.0132 q -1.4752,-8.18676 -9.2192,-8.18676 -5.163,0 -8.4082,4.42528 -3.2452,4.35149 -3.2452,11.21067 0,7.15418 3.0978,11.57949 3.1715,4.42526 8.2605,4.42526 4.1303,0 7.9656,-4.13028 l 15.7098,18.88118 q -10.9896,8.62928 -24.413,8.62928 -16.3734,0 -27.5103,-10.98943 -11.137,-10.98941 -11.137,-27.21542 0,-16.15226 11.2108,-27.2892 11.2843,-11.13692 27.6578,-11.13692 16.0048,0 26.8467,10.91568 10.9158,10.84193 10.9158,26.77289 0,1.6226 -0.2951,5.16283 z"
       style="font-style:normal;font-variant:normal;font-weight:normal;font-stretch:normal;font-size:50.8px;line-height:1.25;font-family:'Bauhaus 93';-inkscape-font-specification:'Bauhaus 93, Normal';font-variant-ligatures:normal;font-variant-caps:normal;font-variant-numeric:normal;font-variant-east-asian:normal;letter-spacing:0px;word-spacing:0px;fill:#dcdcdc;fill-opacity:1;stroke:#000000;stroke-width:2.64583;stroke-miterlimit:4;stroke-dasharray:none;stroke-opacity:1"
       id="path1473" />
    <path
       d="m 1269.3945,96.713725 v 28.174235 h 12.391 v 29.13305 h -12.391 q 0,8.7768 2.7291,12.09577 2.8027,3.31896 10.178,3.31896 v 28.98551 q -2.1386,0.0738 -3.1713,0.0738 -9.367,0 -17.7012,-4.35152 -8.2605,-4.35151 -13.2757,-11.80074 -6.3428,-9.51432 -6.3428,-25.22404 V 96.713685 Z"
       style="font-style:normal;font-variant:normal;font-weight:normal;font-stretch:normal;font-size:50.8px;line-height:1.25;font-family:'Bauhaus 93';-inkscape-font-specification:'Bauhaus 93, Normal';font-variant-ligatures:normal;font-variant-caps:normal;font-variant-numeric:normal;font-variant-east-asian:normal;letter-spacing:0px;word-spacing:0px;fill:#dcdcdc;fill-opacity:1;stroke:#000000;stroke-width:2.64583;stroke-miterlimit:4;stroke-dasharray:none;stroke-opacity:1"
       id="path1475" />
    <path
       d="m 1322.8667,123.85544 v 73.53326 h -27.5842 v -73.53326 z m -13.7184,-32.820809 q 5.6054,0 9.6619,3.982759 4.1304,3.908991 4.1304,9.29307 0,5.75286 -3.909,9.44058 -3.8354,3.68772 -9.8833,3.68772 -6.0479,0 -9.9567,-3.68772 -3.8352,-3.68772 -3.8352,-9.44058 0,-5.384079 4.0564,-9.29307 4.1303,-3.982759 9.7355,-3.982759 z"
       style="font-style:normal;font-variant:normal;font-weight:normal;font-stretch:normal;font-size:50.8px;line-height:1.25;font-family:'Bauhaus 93';-inkscape-font-specification:'Bauhaus 93, Normal';font-variant-ligatures:normal;font-variant-caps:normal;font-variant-numeric:normal;font-variant-east-asian:normal;letter-spacing:0px;word-spacing:0px;fill:#dcdcdc;fill-opacity:1;stroke:#000000;stroke-width:2.64583;stroke-miterlimit:4;stroke-dasharray:none;stroke-opacity:1"
       id="path1477" />
    <path
       d="m 1363.8005,96.713725 v 28.174235 h 12.3909 v 29.13305 h -12.3909 q 0,8.7768 2.7289,12.09577 2.8027,3.31896 10.1782,3.31896 v 28.98551 q -2.1389,0.0738 -3.1716,0.0738 -9.3667,0 -17.7012,-4.35152 -8.2602,-4.35151 -13.2757,-11.80074 -6.3429,-9.51432 -6.3429,-25.22404 V 96.713685 Z"
       style="font-style:normal;font-variant:normal;font-weight:normal;font-stretch:normal;font-size:50.8px;line-height:1.25;font-family:'Bauhaus 93';-inkscape-font-specification:'Bauhaus 93, Normal';font-variant-ligatures:normal;font-variant-caps:normal;font-variant-numeric:normal;font-variant-east-asian:normal;letter-spacing:0px;word-spacing:0px;fill:#dcdcdc;fill-opacity:1;stroke:#000000;stroke-width:2.64583;stroke-miterlimit:4;stroke-dasharray:none;stroke-opacity:1"
       id="path1479" />
    <path
       d="m 1417.2726,123.85544 v 73.53326 h -27.5844 v -73.53326 z m -13.7185,-32.820809 q 5.6052,0 9.662,3.982759 4.1301,3.908991 4.1301,9.29307 0,5.75286 -3.9091,9.44058 -3.8349,3.68772 -9.883,3.68772 -6.0479,0 -9.9568,-3.68772 -3.8354,-3.68772 -3.8354,-9.44058 0,-5.384079 4.0567,-9.29307 4.1302,-3.982759 9.7355,-3.982759 z"
       style="font-style:normal;font-variant:normal;font-weight:normal;font-stretch:normal;font-size:50.8px;line-height:1.25;font-family:'Bauhaus 93';-inkscape-font-specification:'Bauhaus 93, Normal';font-variant-ligatures:normal;font-variant-caps:normal;font-variant-numeric:normal;font-variant-east-asian:normal;letter-spacing:0px;word-spacing:0px;fill:#dcdcdc;fill-opacity:1;stroke:#000000;stroke-width:2.64583;stroke-miterlimit:4;stroke-dasharray:none;stroke-opacity:1"
       id="path1481" />
    <path
       d="m 1488.8881,123.85544 -34.3696,76.40967 -33.9269,-76.40967 h 26.3303 l 7.8178,19.83995 8.5557,-19.83995 z"
       style="font-style:normal;font-variant:normal;font-weight:normal;font-stretch:normal;font-size:50.8px;line-height:1.25;font-family:'Bauhaus 93';-inkscape-font-specification:'Bauhaus 93, Normal';font-variant-ligatures:normal;font-variant-caps:normal;font-variant-numeric:normal;font-variant-east-asian:normal;letter-spacing:0px;word-spacing:0px;fill:#dcdcdc;fill-opacity:1;stroke:#000000;stroke-width:2.64583;stroke-miterlimit:4;stroke-dasharray:none;stroke-opacity:1"
       id="path1483" />
    <path
       d="m 1564.044,165.08422 h -41.8189 q -0.9586,-3.17148 -0.9586,-5.8266 0,-3.68775 1.3275,-7.22795 h 14.0135 q -1.4753,-8.18676 -9.2193,-8.18676 -5.1631,0 -8.4082,4.42528 -3.2452,4.35149 -3.2452,11.21067 0,7.15418 3.0976,11.57949 3.1713,4.42526 8.2605,4.42526 4.1302,0 7.9655,-4.13028 l 15.7098,18.88118 q -10.9894,8.62928 -24.4127,8.62928 -16.3735,0 -27.5105,-10.98943 -11.1369,-10.98941 -11.1369,-27.21542 0,-16.15226 11.2106,-27.2892 11.2845,-11.13692 27.6581,-11.13692 16.0047,0 26.8465,10.91568 10.9157,10.84193 10.9157,26.77289 0,1.6226 -0.295,5.16283 z"
       style="font-style:normal;font-variant:normal;font-weight:normal;font-stretch:normal;font-size:50.8px;line-height:1.25;font-family:'Bauhaus 93';-inkscape-font-specification:'Bauhaus 93, Normal';font-variant-ligatures:normal;font-variant-caps:normal;font-variant-numeric:normal;font-variant-east-asian:normal;letter-spacing:0px;word-spacing:0px;fill:#dcdcdc;fill-opacity:1;stroke:#000000;stroke-width:2.64583;stroke-miterlimit:4;stroke-dasharray:none;stroke-opacity:1"
       id="path1485" />
    <path
       d="m 1629.7594,154.97984 v -12.68576 l 45.8017,-0.0738 v 40.12247 q -10.5471,8.40805 -21.7576,12.68582 -11.2107,4.20399 -23.0113,4.20399 -15.9314,0 -28.986,-6.78541 -12.9804,-6.85919 -19.6186,-19.76622 -6.6379,-12.90705 -6.6379,-28.83802 0,-15.7835 6.5642,-29.42809 6.6378,-13.71837 19.0287,-20.356275 12.3908,-6.637909 28.543,-6.637909 11.7268,0 21.1676,3.83523 9.5144,3.761484 14.8988,10.546904 5.3838,6.78546 8.1865,17.70113 l -12.9069,3.54016 q -2.434,-8.26049 -6.048,-12.98077 -3.6139,-4.72031 -10.3257,-7.52297 -6.7119,-2.876439 -14.8985,-2.876439 -9.8094,0 -16.9636,3.023959 -7.1542,2.9502 -11.5794,7.81798 -4.3515,4.8678 -6.7857,10.69441 -4.1301,10.03063 -4.1301,21.7576 0,14.45589 4.9416,24.19149 5.015,9.73563 14.5295,14.45592 9.5144,4.72027 20.2088,4.72027 9.293,0 18.1442,-3.54023 8.8502,-3.61398 13.4232,-7.67047 v -20.13503 z"
       style="font-style:normal;font-variant:normal;font-weight:normal;font-stretch:normal;font-size:50.8px;line-height:1.25;font-family:Arial;-inkscape-font-specification:'Arial, Normal';font-variant-ligatures:normal;font-variant-caps:normal;font-variant-numeric:normal;font-variant-east-asian:normal;letter-spacing:0px;word-spacing:0px;fill:#dcdcdc;fill-opacity:1;stroke:#000000;stroke-width:2.64583;stroke-miterlimit:4;stroke-dasharray:none;stroke-opacity:1"
       id="path1487" />
    <path
       d="m 1745.9965,187.72687 q -7.3755,6.26911 -14.2343,8.85055 -6.7857,2.58138 -14.6036,2.58138 -12.9069,0 -19.84,-6.26913 -6.9329,-6.3429 -6.9329,-16.15223 0,-5.75286 2.5813,-10.47315 2.6554,-4.79403 6.8593,-7.67049 4.2776,-2.8764 9.5879,-4.35149 3.9091,-1.03258 11.8009,-1.99138 16.0786,-1.9176 23.6752,-4.57279 0.074,-2.72889 0.074,-3.46647 0,-8.113 -3.7614,-11.43194 -5.0893,-4.49904 -15.1196,-4.49904 -9.367,0 -13.866,3.31899 -4.4254,3.24515 -6.5641,11.57941 l -12.9809,-1.77008 q 1.7701,-8.33426 5.8267,-13.42336 4.0566,-5.16278 11.727,-7.89171 7.6705,-2.80268 17.7747,-2.80268 10.0309,0 16.2996,2.36016 6.269,2.36012 9.2194,5.97413 2.9502,3.54017 4.1305,8.99803 0.6636,3.39273 0.6636,12.24326 v 17.70109 q 0,18.51241 0.8113,23.45395 0.8851,4.86779 3.393,9.36682 h -13.8661 q -2.0648,-4.13021 -2.6551,-9.66183 z m -1.1062,-29.64933 q -7.228,2.95019 -21.6837,5.01532 -8.1869,1.18005 -11.5794,2.65514 -3.3928,1.4751 -5.2371,4.35154 -1.8438,2.80265 -1.8438,6.2691 0,5.31036 3.9831,8.85059 4.0563,3.5402 11.8006,3.5402 7.6703,0 13.6445,-3.31896 5.9742,-3.3927 8.777,-9.21933 2.1388,-4.499 2.1388,-13.27582 z"
       style="font-style:normal;font-variant:normal;font-weight:normal;font-stretch:normal;font-size:50.8px;line-height:1.25;font-family:Arial;-inkscape-font-specification:'Arial, Normal';font-variant-ligatures:normal;font-variant-caps:normal;font-variant-numeric:normal;font-variant-east-asian:normal;letter-spacing:0px;word-spacing:0px;fill:#dcdcdc;fill-opacity:1;stroke:#000000;stroke-width:2.64583;stroke-miterlimit:4;stroke-dasharray:none;stroke-opacity:1"
       id="path1489" />
    <path
       d="m 1778.9651,197.3887 v -78.32734 h 11.874 v 10.98943 q 3.6878,-5.75285 9.8092,-9.21932 6.1222,-3.54021 13.9399,-3.54021 8.7033,0 14.2348,3.61397 5.6053,3.61399 7.8917,10.1044 9.293,-13.71837 24.1917,-13.71837 11.6531,0 17.9221,6.4904 6.269,6.41664 6.269,19.83999 v 53.76705 h -13.2017 v -49.3418 q 0,-7.96546 -1.3276,-11.43192 -1.2542,-3.54023 -4.6465,-5.67912 -3.3928,-2.13887 -7.9655,-2.13887 -8.2607,0 -13.7185,5.53156 -5.4578,5.45786 -5.4578,17.55361 v 45.50654 h -13.276 v -50.89063 q 0,-8.85056 -3.2452,-13.27582 -3.245,-4.42526 -10.6203,-4.42526 -5.6055,0 -10.3995,2.95017 -4.7204,2.95019 -6.8596,8.62929 -2.1386,5.6791 -2.1386,16.37352 v 40.63873 z"
       style="font-style:normal;font-variant:normal;font-weight:normal;font-stretch:normal;font-size:50.8px;line-height:1.25;font-family:Arial;-inkscape-font-specification:'Arial, Normal';font-variant-ligatures:normal;font-variant-caps:normal;font-variant-numeric:normal;font-variant-east-asian:normal;letter-spacing:0px;word-spacing:0px;fill:#dcdcdc;fill-opacity:1;stroke:#000000;stroke-width:2.64583;stroke-miterlimit:4;stroke-dasharray:none;stroke-opacity:1"
       id="path1491" />
    <path
       d="m 1958.5574,172.16467 13.7182,1.69633 q -3.2451,12.02202 -12.022,18.65989 -8.7769,6.63791 -22.4213,6.63791 -17.1846,0 -27.2892,-10.54689 -10.0308,-10.62065 -10.0308,-29.72309 0,-19.7662 10.1782,-30.68188 10.1783,-10.91568 26.404,-10.91568 15.7099,0 25.6672,10.69439 9.9564,10.69443 9.9564,30.09189 0,1.18008 -0.074,3.54024 h -58.4136 q 0.7374,12.90701 7.3015,19.76619 6.5644,6.85917 16.3738,6.85917 7.3015,0 12.4647,-3.83524 5.1626,-3.83523 8.1867,-12.24323 z m -43.589,-21.46258 h 43.7365 q -0.8854,-9.88312 -5.0152,-14.82466 -6.3431,-7.67049 -16.4474,-7.67049 -9.1458,0 -15.4148,6.12161 -6.1952,6.12163 -6.8591,16.37354 z"
       style="font-style:normal;font-variant:normal;font-weight:normal;font-stretch:normal;font-size:50.8px;line-height:1.25;font-family:Arial;-inkscape-font-specification:'Arial, Normal';font-variant-ligatures:normal;font-variant-caps:normal;font-variant-numeric:normal;font-variant-east-asian:normal;letter-spacing:0px;word-spacing:0px;fill:#dcdcdc;fill-opacity:1;stroke:#000000;stroke-width:2.64583;stroke-miterlimit:4;stroke-dasharray:none;stroke-opacity:1"
       id="path1493" />
    <path
       d="m 1983.7076,174.00851 13.1283,-2.06513 q 1.1063,7.89174 6.1217,12.09574 5.0889,4.20402 14.1608,4.20402 9.1458,0 13.571,-3.68772 4.4251,-3.76151 4.4251,-8.77678 0,-4.49903 -3.909,-7.08044 -2.729,-1.77014 -13.5709,-4.49904 -14.6035,-3.68772 -20.2826,-6.34289 -5.6051,-2.72892 -8.5554,-7.44921 -2.8766,-4.79406 -2.8766,-10.54692 0,-5.23656 2.3604,-9.66184 2.4338,-4.49902 6.5641,-7.44919 3.0977,-2.2864 8.4079,-3.83526 5.3845,-1.62259 11.506,-1.62259 9.2191,0 16.1522,2.65518 7.0067,2.65515 10.3256,7.22795 3.3187,4.49901 4.5729,12.09572 l -12.9811,1.77011 q -0.8849,-6.04788 -5.1626,-9.44054 -4.2042,-3.39274 -11.9483,-3.39274 -9.1458,0 -13.0545,3.02392 -3.9095,3.02397 -3.9095,7.08044 0,2.58142 1.623,4.64654 1.6225,2.13891 5.0893,3.54023 1.9913,0.73754 11.7268,3.3927 14.0871,3.76149 19.6189,6.19537 5.605,2.36015 8.7765,6.93296 3.1715,4.57278 3.1715,11.35821 0,6.6379 -3.9089,12.53824 -3.8353,5.82662 -11.1368,9.07182 -7.3019,3.17143 -16.5212,3.17143 -15.2671,0 -23.3064,-6.34288 -7.9658,-6.34287 -10.1782,-18.80741 z"
       style="font-style:normal;font-variant:normal;font-weight:normal;font-stretch:normal;font-size:50.8px;line-height:1.25;font-family:Arial;-inkscape-font-specification:'Arial, Normal';font-variant-ligatures:normal;font-variant-caps:normal;font-variant-numeric:normal;font-variant-east-asian:normal;letter-spacing:0px;word-spacing:0px;fill:#dcdcdc;fill-opacity:1;stroke:#000000;stroke-width:2.64583;stroke-miterlimit:4;stroke-dasharray:none;stroke-opacity:1"
       id="path1495" />
  </g>
</svg>
