<?xml version="1.0" encoding="UTF-8" standalone="no"?>
<svg
   xmlns:dc="http://purl.org/dc/elements/1.1/"
   xmlns:cc="http://creativecommons.org/ns#"
   xmlns:rdf="http://www.w3.org/1999/02/22-rdf-syntax-ns#"
   xmlns:svg="http://www.w3.org/2000/svg"
   xmlns="http://www.w3.org/2000/svg"
   xmlns:sodipodi="http://sodipodi.sourceforge.net/DTD/sodipodi-0.dtd"
   xmlns:inkscape="http://www.inkscape.org/namespaces/inkscape"
   width="702.78265"
   height="1024.0001"
   viewBox="0 0 185.94456 270.93335"
   version="1.1"
   id="svg8"
   inkscape:version="1.0 (4035a4fb49, 2020-05-01)"
   sodipodi:docname="logo-src.svg"
   inkscape:export-filename="C:\Users\matis\Documents\Projekty\Competitive Games\src\client\shared\assets\logo.png"
   inkscape:export-xdpi="96"
   inkscape:export-ydpi="96">
  <defs
     id="defs2" />
  <sodipodi:namedview
     id="base"
     pagecolor="#272727"
     bordercolor="#666666"
     borderopacity="1.0"
     inkscape:pageopacity="0"
     inkscape:pageshadow="2"
     inkscape:zoom="0.5"
     inkscape:cx="159.41277"
     inkscape:cy="606.39916"
     inkscape:document-units="mm"
     inkscape:current-layer="layer2"
     inkscape:document-rotation="0"
     showgrid="false"
     fit-margin-top="0"
     fit-margin-left="0"
     fit-margin-right="0"
     fit-margin-bottom="0"
     inkscape:showpageshadow="false"
     inkscape:window-width="1920"
     inkscape:window-height="1001"
     inkscape:window-x="-9"
     inkscape:window-y="1341"
     inkscape:window-maximized="1"
     units="px" />
  <metadata
     id="metadata5">
    <rdf:RDF>
      <cc:Work
         rdf:about="">
        <dc:format>image/svg+xml</dc:format>
        <dc:type
           rdf:resource="http://purl.org/dc/dcmitype/StillImage" />
        <dc:title></dc:title>
      </cc:Work>
    </rdf:RDF>
  </metadata>
  <g
     inkscape:groupmode="layer"
     id="layer2"
     inkscape:label="content"
     transform="translate(-505.07642,-6.605793)">
    <g
       id="g860"
       transform="matrix(0.99508316,0,0,0.99510614,2.9281138,0.69524342)"
       style="stroke-width:2.65888;stroke-miterlimit:4;stroke-dasharray:none"
       inkscape:export-xdpi="96"
       inkscape:export-ydpi="96">
      <g
         transform="matrix(44.177684,0,0,43.946628,-19490.021,-20551.958)"
         style="font-style:normal;font-variant:normal;font-weight:normal;font-stretch:normal;font-size:8.46667px;line-height:1.25;font-family:Bahnschrift;-inkscape-font-specification:'Bahnschrift, Normal';font-variant-ligatures:normal;font-variant-caps:normal;font-variant-numeric:normal;font-variant-east-asian:normal;letter-spacing:0px;word-spacing:0px;fill:#b80f0a;fill-opacity:1;stroke:#000000;stroke-width:0.060344;stroke-miterlimit:4;stroke-dasharray:none;stroke-opacity:1"
         id="text936"
         aria-label="C">
        <path
           id="path938"
           style="font-style:normal;font-variant:normal;font-weight:normal;font-stretch:normal;font-size:8.46667px;font-family:Bahnschrift;-inkscape-font-specification:'Bahnschrift, Normal';font-variant-ligatures:normal;font-variant-caps:normal;font-variant-numeric:normal;font-variant-east-asian:normal;fill:#b80f0a;fill-opacity:1;stroke:#000000;stroke-width:0.060344;stroke-miterlimit:4;stroke-dasharray:none;stroke-opacity:1"
           d="m 454.7182,473.95758 q -0.62425,0 -1.09967,-0.27699 -0.47129,-0.27698 -0.73174,-0.78548 -0.26045,-0.50849 -0.26045,-1.17822 v -1.64951 q 0,-0.66973 0.26045,-1.17822 0.26045,-0.5085 0.73174,-0.78549 0.47542,-0.28112 1.09967,-0.28112 0.51677,0 0.95085,0.22325 0.43408,0.21911 0.72347,0.62425 0.29352,0.40514 0.39688,0.93844 v 0 h -0.86403 v 0 q -0.0786,-0.28112 -0.26459,-0.50023 -0.1819,-0.22324 -0.42995,-0.34313 -0.24804,-0.11989 -0.51263,-0.11989 -0.36793,0 -0.64492,0.17777 -0.27698,0.17777 -0.42995,0.50023 -0.15296,0.31833 -0.15296,0.74414 v 1.64951 q 0,0.42168 0.15296,0.74414 0.15297,0.32246 0.42995,0.50023 0.27699,0.17363 0.64492,0.17363 0.26872,0 0.51263,-0.11162 0.24805,-0.11162 0.42995,-0.33073 0.18604,-0.21911 0.26459,-0.5209 v 0 h 0.86403 v 0 q -0.10336,0.5333 -0.39688,0.93845 -0.29352,0.40514 -0.7276,0.62838 -0.43409,0.21911 -0.94672,0.21911 z" />
      </g>
      <g
         transform="matrix(1.9954956,0,0,1.9908469,-374.5428,-5.9238411)"
         id="g852"
         style="fill:#ffdc00;fill-opacity:1;stroke:#000000;stroke-width:1.33399;stroke-miterlimit:4;stroke-dasharray:none;stroke-opacity:1">
        <rect
           y="80.912521"
           x="514.435"
           height="19.050156"
           width="19.105703"
           id="rect1248"
           style="fill:#ffdc00;fill-opacity:1;stroke:#000000;stroke-width:1.33399;stroke-miterlimit:4;stroke-dasharray:none;stroke-opacity:1" />
        <rect
           style="fill:#ffdc00;fill-opacity:1;stroke:#000000;stroke-width:1.33399;stroke-miterlimit:4;stroke-dasharray:none;stroke-opacity:1"
           id="rect1252"
           width="19.105703"
           height="19.050156"
           x="514.435"
           y="61.862358" />
        <rect
           y="61.862358"
           x="495.3291"
           height="19.050156"
           width="19.105703"
           id="rect1256"
           style="fill:#ffdc00;fill-opacity:1;stroke:#000000;stroke-width:1.33399;stroke-miterlimit:4;stroke-dasharray:none;stroke-opacity:1" />
        <rect
           style="fill:#ffdc00;fill-opacity:1;stroke:#000000;stroke-width:1.33399;stroke-miterlimit:4;stroke-dasharray:none;stroke-opacity:1"
           id="rect1260"
           width="19.105703"
           height="19.050156"
           x="476.22324"
           y="61.862358" />
      </g>
    </g>
  </g>
</svg>
