<?xml version="1.0" encoding="UTF-8"?>
<svg width="702.78" height="1024" version="1.1" viewBox="0 0 185.94 270.93" xmlns="http://www.w3.org/2000/svg" xmlns:cc="http://creativecommons.org/ns#" xmlns:dc="http://purl.org/dc/elements/1.1/" xmlns:rdf="http://www.w3.org/1999/02/22-rdf-syntax-ns#">
 <metadata>
  <rdf:RDF>
   <cc:Work rdf:about="">
    <dc:format>image/svg+xml</dc:format>
    <dc:type rdf:resource="http://purl.org/dc/dcmitype/StillImage"/>
    <dc:title/>
   </cc:Work>
  </rdf:RDF>
 </metadata>
 <g transform="translate(-505.08 -6.6058)">
  <g transform="matrix(.99508 0 0 .99511 2.9281 .69524)" stroke="#000">
   <g transform="matrix(44.178 0 0 43.947 -19490 -20552)" fill="#b80f0a" stroke-width=".060344" style="font-variant-caps:normal;font-variant-east-asian:normal;font-variant-ligatures:normal;font-variant-numeric:normal" aria-label="C">
    <path d="m454.72 473.96q-0.62425 0-1.0997-0.27699-0.47129-0.27698-0.73174-0.78548-0.26045-0.50849-0.26045-1.1782v-1.6495q0-0.66973 0.26045-1.1782 0.26045-0.5085 0.73174-0.78549 0.47542-0.28112 1.0997-0.28112 0.51677 0 0.95085 0.22325 0.43408 0.21911 0.72347 0.62425 0.29352 0.40514 0.39688 0.93844h-0.86403q-0.0786-0.28112-0.26459-0.50023-0.1819-0.22324-0.42995-0.34313-0.24804-0.11989-0.51263-0.11989-0.36793 0-0.64492 0.17777-0.27698 0.17777-0.42995 0.50023-0.15296 0.31833-0.15296 0.74414v1.6495q0 0.42168 0.15296 0.74414 0.15297 0.32246 0.42995 0.50023 0.27699 0.17363 0.64492 0.17363 0.26872 0 0.51263-0.11162 0.24805-0.11162 0.42995-0.33073 0.18604-0.21911 0.26459-0.5209h0.86403q-0.10336 0.5333-0.39688 0.93845-0.29352 0.40514-0.7276 0.62838-0.43409 0.21911-0.94672 0.21911z" fill="#b80f0a" stroke="#000" stroke-width=".060344" style="font-variant-caps:normal;font-variant-east-asian:normal;font-variant-ligatures:normal;font-variant-numeric:normal"/>
   </g>
   <g transform="matrix(1.9955 0 0 1.9908 -374.54 -5.9238)" fill="#ffdc00" stroke-width="1.334">
    <rect x="514.44" y="80.913" width="19.106" height="19.05"/>
    <rect x="514.44" y="61.862" width="19.106" height="19.05"/>
    <rect x="495.33" y="61.862" width="19.106" height="19.05"/>
    <rect x="476.22" y="61.862" width="19.106" height="19.05"/>
   </g>
  </g>
 </g>
</svg>
